<svg version="1.1" baseProfile="full" width="3536.3" height="808.0" viewbox="0 0 3536.25 808" xmlns="http://www.w3.org/2000/svg" xmlns:xlink="http://www.w3.org/1999/xlink" xmlns:ev="http://www.w3.org/2001/xml-events">
	<desc >#background: #FFFFFF
	# Combining the relationships of /routes/, /templates/, and root directory
	
	[Account|login(); logout(); register(); account_settings()]
	[Admin|admin_dashboard(); create_job_card(); create_timesheet(); manage_users()]
	[EmailUtil|send_email(subject, recipients, body)]
	[Main|index(); info(); upload_file()]
	[SQLAlchemyConfig|db: SQLAlchemy]
	[Tasks|manage_tasks(); delete_task(task_id)]
	
	[Login|Login]
	[Register|Register]
	[SuperAdminDashboard|Super Admin Dashboard]
	[Verification|Verify Account]
	[AdminDashboard|Admin Dashboard]
	[CreateJobCard|Create Job Card]
	[CreateTimesheet|Create Timesheet]
	[Customise|Customise]
	[Dashboard|Dashboard]
	[EmployeeSettings|Employee Settings]
	[Index|Index]
	[Info|Info]
	[AccountSettings|Account Settings]
	
	[AdminRoutes|admin_dashboard(); create_job_card(); create_timesheet(); manage_users()]
	[App|create_app(config_class=Config)]
	[ConfigureMSAL|get_msal_app(); load_cache(cache); save_cache(cache)]
	[ConfigureSMTP|send_email(subject, body, to)]
	[CreateADCredentialsDB|create_adcredentials_db()]
	[CreateSQLAlchemyDB|create_sqlalchemy_db()]
	[Extensions|db: SQLAlchemy; login_manager: LoginManager; mail: Mail]
	[InitExtensions|init_extensions(app)]
	[Migration|init(); migrate()]
	[Models|User; Organisation; Timesheet; JobCard; Task]
	[Timesheet2JSON|timesheet_to_json(docx_file)]
	[TotalHourDict|total_hours(timesheets)]
	[UpdateExcel|update_excel(excel_file, data)]
	[Util|save_file(file, filename, directory); allowed_file(filename, allowed_extensions)]
	
	# Relationships
	[Account] - [Main]
	[Admin] - [Main]
	[EmailUtil] - [Main]
	[SQLAlchemyConfig] - [Main]
	[Tasks] - [Main]
	
	[Account] - [SQLAlchemyConfig]
	[Admin] - [SQLAlchemyConfig]
	[Tasks] - [SQLAlchemyConfig]
	
	[Account] - [EmailUtil]
	[Admin] - [EmailUtil]
	[Tasks] - [EmailUtil]
	
	[Main] - [SQLAlchemyConfig]
	
	[Login] -&gt; [Index]
	[Register] -&gt; [Verification]
	[SuperAdminDashboard] -&gt; [AdminDashboard]
	[Verification] -&gt; [Index]
	[AdminDashboard] -&gt; [CreateJobCard]
	[AdminDashboard] -&gt; [CreateTimesheet]
	[AdminDashboard] -&gt; [Dashboard]
	[CreateJobCard] -&gt; [Dashboard]
	[CreateTimesheet] -&gt; [Dashboard]
	[Customise] -&gt; [Dashboard]
	[Dashboard] -&gt; [EmployeeSettings]
	[EmployeeSettings] -&gt; [AccountSettings]
	[Index] -&gt; [Info]
	[Index] -&gt; [AccountSettings]
	[Info] -&gt; [Index]
	[AccountSettings] -&gt; [Dashboard]
	
	[App] - [AdminRoutes]
	[App] - [ConfigureMSAL]
	[App] - [ConfigureSMTP]
	[App] - [Extensions]
	[App] - [InitExtensions]
	[App] - [Models]
	
	[ConfigureMSAL] - [Extensions]
	[ConfigureSMTP] - [Extensions]
	[CreateADCredentialsDB] - [Models]
	[CreateSQLAlchemyDB] - [Models]
	
	[Extensions] - [Models]
	[InitExtensions] - [Extensions]
	
	[Timesheet2JSON] - [UpdateExcel]
	[TotalHourDict] - [Models]
	[Util] - [Models]</desc>
	<g stroke-width="1.0" text-align="left" font="12pt Helvetica, Arial, sans-serif" font-size="12pt" font-family="Helvetica" font-weight="normal" font-style="normal">
		<g font-family="Helvetica" font-size="12pt" font-weight="bold" font-style="normal" stroke-width="3.0" stroke-linejoin="round" stroke-linecap="round" stroke="#33322E">
			<g stroke="transparent" fill="#FFFFFF">
				<rect x="0.0" y="0.0" height="808.0" width="3536.3" stroke="none"></rect>
			</g>
			<g transform="translate(48, 8)" fill="#33322E">
				<g transform="translate(20, 20)" fill="#33322E" font-family="Helvetica" font-size="12pt" font-weight="normal" font-style="normal">
					<path d="M602.8 105.0 L568 127 L568 200.5 L568 200.5 L568 274 L568 274 L317 327.69854132901133 L317.0 327.7 " fill="none"></path>
					<path d="M392.6 107.0 L361 127 L361 200.5 L361 200.5 L361 274 L361 274 L317 302.61083743842363 L317.0 302.6 " fill="none"></path>
					<path d="M156.0 231.5 L156 274 L202 303.3333333333333 L202.0 303.3 " fill="none"></path>
					<path d="M462.0 464.8 L239.5 406 L245.56060606060606 386 L245.6 386.0 " fill="none"></path>
					<path d="M174.8 75.0 L-40 127 L-40 200.5 L-40 200.5 L-40 274 L-40 274 L202 327.3288814691152 L202.0 327.3 " fill="none"></path>
					<path d="M765.8 74.4 L970.75 127 L970.75 200.5 L970.75 200.5 L970.75 274 L970.75 274 L970.75 340 L970.75 340 L970.75 406 L970.75 406 L630 470.9811653914067 L630.0 471.0 " fill="none"></path>
					<path d="M562.8 70.0 L859 127 L859 200.5 L859 200.5 L859 274 L859 274 L859 340 L859 340 L859 406 L859 406 L630 465.26198083067095 L630.0 465.3 " fill="none"></path>
					<path d="M351.8 65.2 L819 127 L819 200.5 L819 200.5 L819 274 L819 274 L819 340 L819 340 L819 406 L819 406 L630 462.0769230769231 L630.0 462.1 " fill="none"></path>
					<path d="M602.8 67.2 L247.75 127 L194.69727891156464 169.5 L194.7 169.5 " fill="none"></path>
					<path d="M391.8 72.7 L149.75 127 L153.3639455782313 169.5 L153.4 169.5 " fill="none"></path>
					<path d="M174.8 86.6 L67 127 L118.46258503401361 169.5 L118.5 169.5 " fill="none"></path>
					<path d="M317.0 349.2 L673.5 406 L594.7962962962963 456 L594.8 456.0 " fill="none"></path>
					<path d="M1746.8 231.5 L1746.75 274 L1568.8712167468257 328.7957978749568 L1568.9 328.8 " fill="none"></path>
					<path d="M1573.7 321.7 L1568.9 328.8 L1576.8 331.9 L1562.5 330.8 Z"></path>
					<path d="M1235.5 64.6 L1465 127 L1465 162.83333333333334 L1465.0 162.8 " fill="none"></path>
					<path d="M1459.7 156.2 L1465.0 162.8 L1470.3 156.2 L1465.0 169.5 Z"></path>
					<path d="M2105.3 231.5 L2105.25 274 L2105.25 302.3333333333333 L2105.3 302.3 " fill="none"></path>
					<path d="M2099.9 295.7 L2105.3 302.3 L2110.6 295.7 L2105.3 309.0 Z"></path>
					<path d="M1465.0 231.5 L1465 274 L1497.7332888732462 306.00588245384085 L1497.7 306.0 " fill="none"></path>
					<path d="M1489.2 305.2 L1497.7 306.0 L1496.7 297.5 L1502.5 310.7 Z"></path>
					<path d="M2026.8 355.9 L1779.5 406 L1779.5 449.3333333333333 L1779.5 449.3 " fill="none"></path>
					<path d="M1774.2 442.7 L1779.5 449.3 L1784.8 442.7 L1779.5 456.0 Z"></path>
					<path d="M2026.8 347.3 L1391.5 406 L1391.5 449.3333333333333 L1391.5 449.3 " fill="none"></path>
					<path d="M1386.2 442.7 L1391.5 449.3 L1396.8 442.7 L1391.5 456.0 Z"></path>
					<path d="M2183.8 343.9 L3440.25 406 L3440.25 487 L3440.25 487 L3440.25 568 L3440.25 568 L1972.1629478545537 617.056471521322 L1972.2 617.1 " fill="none"></path>
					<path d="M1978.6 611.5 L1972.2 617.1 L1979.0 622.2 L1965.5 617.3 Z"></path>
					<path d="M1779.5 518.0 L1779.5 568 L1856.2664182231888 597.1084559805399 L1856.3 597.1 " fill="none"></path>
					<path d="M1848.1 599.7 L1856.3 597.1 L1851.9 589.8 L1862.5 599.5 Z"></path>
					<path d="M1391.5 518.0 L1391.5 568 L1855.8648657133247 613.3255658399609 L1855.9 613.3 " fill="none"></path>
					<path d="M1848.7 618.0 L1855.9 613.3 L1849.7 607.4 L1862.5 614.0 Z"></path>
					<path d="M1224.0 518.0 L1224 568 L1855.8514695167048 614.7020651381913 L1855.9 614.7 " fill="none"></path>
					<path d="M1848.8 619.5 L1855.9 614.7 L1849.6 608.9 L1862.5 615.2 Z"></path>
					<path d="M1914.0 650.0 L1914 670 L1730.801865172516 704.4446262717113 L1730.8 704.4 " fill="none"></path>
					<path d="M1736.4 698.0 L1730.8 704.4 L1738.3 708.5 L1724.3 705.7 Z"></path>
					<path d="M1561.3 714.1 L1040 670 L1040 619 L1040 619 L1040 568 L1040 568 L1050.7475828090328 524.4722896234177 L1050.7 524.5 " fill="none"></path>
					<path d="M1054.3 532.2 L1050.7 524.5 L1044.0 529.7 L1052.3 518.0 Z"></path>
					<path d="M1555.0 371.0 L1580.5 406 L1554.269052972382 450.2647231091055 L1554.3 450.3 " fill="none"></path>
					<path d="M1553.1 441.8 L1554.3 450.3 L1562.3 447.2 L1550.9 456.0 Z"></path>
					<path d="M1502.5 344.2 L1060 406 L1060 449.3333333333333 L1060.0 449.3 " fill="none"></path>
					<path d="M1054.7 442.7 L1060.0 449.3 L1065.3 442.7 L1060.0 456.0 Z"></path>
					<path d="M1513.2 456.0 L1482 406 L1504.7291469904887 376.2945801708465 L1504.7 376.3 " fill="none"></path>
					<path d="M1504.9 384.8 L1504.7 376.3 L1496.4 378.3 L1508.8 371.0 Z"></path>
					<path d="M1083.7 518.0 L1122 568 L1855.8471124274645 615.2553064820715 L1855.8 615.3 " fill="none"></path>
					<path d="M1848.9 620.1 L1855.8 615.3 L1849.5 609.5 L1862.5 615.7 Z"></path>
					<path d="M2620.0 58.4 L693.5 127 L693.5 147 L693.5 147.0 " fill="none"></path>
					<path d="M2850.8 84.5 L2976.75 127 L2976.75 154.5 L2976.8 154.5 " fill="none"></path>
					<path d="M2745.0 84.5 L2725.75 127 L2725.75 169.5 L2725.8 169.5 " fill="none"></path>
					<path d="M2898.0 83.2 L3102.75 127 L3102.75 200.5 L3102.75 200.5 L3102.75 274 L3102.75 274 L2848.25 317.7992177314211 L2848.3 317.8 " fill="none"></path>
					<path d="M2635.8 84.5 L2467 127 L2467 169.5 L2467.0 169.5 " fill="none"></path>
					<path d="M2898.0 69.4 L3400.25 127 L3400.25 200.5 L3400.25 200.5 L3400.25 274 L3400.25 274 L3400.25 340 L3400.25 340 L3400.25 406 L3400.25 406 L3133 472.4535686876439 L3133.0 472.5 " fill="none"></path>
					<path d="M2976.8 246.5 L2976.75 274 L2848.25 306.93592233009707 L2848.3 306.9 " fill="none"></path>
					<path d="M2725.8 231.5 L2725.75 274 L2723.780303030303 294 L2723.8 294.0 " fill="none"></path>
					<path d="M3247.8 371.0 L3247.75 406 L3133 459.64935064935065 L3133.0 459.6 " fill="none"></path>
					<path d="M2991.8 371.0 L2991.75 406 L3016 429.73716012084594 L3016.0 429.7 " fill="none"></path>
					<path d="M2719.3 386.0 L2719.25 406 L3016 473.66150598170304 L3016.0 473.7 " fill="none"></path>
					<path d="M2467.0 231.5 L2467 274 L2590.25 306.24777006937563 L2590.3 306.2 " fill="none"></path>
					<path d="M1076.1 84.5 L1232.5 127 L1232.5 169.5 L1232.5 169.5 " fill="none"></path>
					<path d="M2325.3 371.0 L2325.25 406 L3016 480.6756756756757 L3016.0 480.7 " fill="none"></path>
					<path d="M1853.8 378.5 L1885.25 406 L3016 483.0155560227034 L3016.0 483.0 " fill="none"></path>
					<g data-name="Account">
						<g fill="#eee8d5" stroke="#33322E" data-name="Account">
							<rect x="602.8" y="0.0" height="107.0" width="163.0" data-name="Account"></rect>
							<path d="M602.8 31.0 L765.8 31.0" fill="none" data-name="Account"></path>
						</g>
						<g transform="translate(602.75, 0)" font-family="Helvetica" font-size="12pt" font-weight="bold" font-style="normal" data-name="Account">
							<g transform="translate(8, 8)" fill="#33322E" text-align="center" data-name="Account">
								<text x="73.5" y="13.5" stroke="none" text-anchor="middle" data-name="Account">Account</text>
								
							</g>
						</g>
						<g transform="translate(602.75, 31)" font-family="Helvetica" font-size="12pt" font-weight="normal" font-style="normal" data-name="Account">
							<g transform="translate(8, 8)" fill="#33322E" text-align="left" data-name="Account">
								<text x="0.0" y="13.5" stroke="none" data-name="Account">login()</text>
								<text x="0.0" y="28.5" stroke="none" data-name="Account">logout()</text>
								<text x="0.0" y="43.5" stroke="none" data-name="Account">register()</text>
								<text x="0.0" y="58.5" stroke="none" data-name="Account">account_settings()</text>
								
							</g>
						</g>
					</g>
					<g data-name="Admin">
						<g fill="#eee8d5" stroke="#33322E" data-name="Admin">
							<rect x="391.8" y="0.0" height="107.0" width="171.0" data-name="Admin"></rect>
							<path d="M391.8 31.0 L562.8 31.0" fill="none" data-name="Admin"></path>
						</g>
						<g transform="translate(391.75, 0)" font-family="Helvetica" font-size="12pt" font-weight="bold" font-style="normal" data-name="Admin">
							<g transform="translate(8, 8)" fill="#33322E" text-align="center" data-name="Admin">
								<text x="77.5" y="13.5" stroke="none" text-anchor="middle" data-name="Admin">Admin</text>
								
							</g>
						</g>
						<g transform="translate(391.75, 31)" font-family="Helvetica" font-size="12pt" font-weight="normal" font-style="normal" data-name="Admin">
							<g transform="translate(8, 8)" fill="#33322E" text-align="left" data-name="Admin">
								<text x="0.0" y="13.5" stroke="none" data-name="Admin">admin_dashboard()</text>
								<text x="0.0" y="28.5" stroke="none" data-name="Admin">create_job_card()</text>
								<text x="0.0" y="43.5" stroke="none" data-name="Admin">create_timesheet()</text>
								<text x="0.0" y="58.5" stroke="none" data-name="Admin">manage_users()</text>
								
							</g>
						</g>
					</g>
					<g data-name="EmailUtil">
						<g fill="#eee8d5" stroke="#33322E" data-name="EmailUtil">
							<rect x="0.0" y="169.5" height="62.0" width="312.0" data-name="EmailUtil"></rect>
							<path d="M0.0 200.5 L312.0 200.5" fill="none" data-name="EmailUtil"></path>
						</g>
						<g transform="translate(0, 169.5)" font-family="Helvetica" font-size="12pt" font-weight="bold" font-style="normal" data-name="EmailUtil">
							<g transform="translate(8, 8)" fill="#33322E" text-align="center" data-name="EmailUtil">
								<text x="148.0" y="13.5" stroke="none" text-anchor="middle" data-name="EmailUtil">EmailUtil</text>
								
							</g>
						</g>
						<g transform="translate(0, 200.5)" font-family="Helvetica" font-size="12pt" font-weight="normal" font-style="normal" data-name="EmailUtil">
							<g transform="translate(8, 8)" fill="#33322E" text-align="left" data-name="EmailUtil">
								<text x="0.0" y="13.5" stroke="none" data-name="EmailUtil">send_email(subject, recipients, body)</text>
								
							</g>
						</g>
					</g>
					<g data-name="Main">
						<g fill="#eee8d5" stroke="#33322E" data-name="Main">
							<rect x="202.0" y="294.0" height="92.0" width="115.0" data-name="Main"></rect>
							<path d="M202.0 325.0 L317.0 325.0" fill="none" data-name="Main"></path>
						</g>
						<g transform="translate(202, 294)" font-family="Helvetica" font-size="12pt" font-weight="bold" font-style="normal" data-name="Main">
							<g transform="translate(8, 8)" fill="#33322E" text-align="center" data-name="Main">
								<text x="49.5" y="13.5" stroke="none" text-anchor="middle" data-name="Main">Main</text>
								
							</g>
						</g>
						<g transform="translate(202, 325)" font-family="Helvetica" font-size="12pt" font-weight="normal" font-style="normal" data-name="Main">
							<g transform="translate(8, 8)" fill="#33322E" text-align="left" data-name="Main">
								<text x="0.0" y="13.5" stroke="none" data-name="Main">index()</text>
								<text x="0.0" y="28.5" stroke="none" data-name="Main">info()</text>
								<text x="0.0" y="43.5" stroke="none" data-name="Main">upload_file()</text>
								
							</g>
						</g>
					</g>
					<g data-name="SQLAlchemyConfig">
						<g fill="#eee8d5" stroke="#33322E" data-name="SQLAlchemyConfig">
							<rect x="462.0" y="456.0" height="62.0" width="168.0" data-name="SQLAlchemyConfig"></rect>
							<path d="M462.0 487.0 L630.0 487.0" fill="none" data-name="SQLAlchemyConfig"></path>
						</g>
						<g transform="translate(462, 456)" font-family="Helvetica" font-size="12pt" font-weight="bold" font-style="normal" data-name="SQLAlchemyConfig">
							<g transform="translate(8, 8)" fill="#33322E" text-align="center" data-name="SQLAlchemyConfig">
								<text x="76.0" y="13.5" stroke="none" text-anchor="middle" data-name="SQLAlchemyConfig">SQLAlchemyConfig</text>
								
							</g>
						</g>
						<g transform="translate(462, 487)" font-family="Helvetica" font-size="12pt" font-weight="normal" font-style="normal" data-name="SQLAlchemyConfig">
							<g transform="translate(8, 8)" fill="#33322E" text-align="left" data-name="SQLAlchemyConfig">
								<text x="0.0" y="13.5" stroke="none" data-name="SQLAlchemyConfig">db: SQLAlchemy</text>
								
							</g>
						</g>
					</g>
					<g data-name="Tasks">
						<g fill="#eee8d5" stroke="#33322E" data-name="Tasks">
							<rect x="174.8" y="15.0" height="77.0" width="177.0" data-name="Tasks"></rect>
							<path d="M174.8 46.0 L351.8 46.0" fill="none" data-name="Tasks"></path>
						</g>
						<g transform="translate(174.75, 15)" font-family="Helvetica" font-size="12pt" font-weight="bold" font-style="normal" data-name="Tasks">
							<g transform="translate(8, 8)" fill="#33322E" text-align="center" data-name="Tasks">
								<text x="80.5" y="13.5" stroke="none" text-anchor="middle" data-name="Tasks">Tasks</text>
								
							</g>
						</g>
						<g transform="translate(174.75, 46)" font-family="Helvetica" font-size="12pt" font-weight="normal" font-style="normal" data-name="Tasks">
							<g transform="translate(8, 8)" fill="#33322E" text-align="left" data-name="Tasks">
								<text x="0.0" y="13.5" stroke="none" data-name="Tasks">manage_tasks()</text>
								<text x="0.0" y="28.5" stroke="none" data-name="Tasks">delete_task(task_id)</text>
								
							</g>
						</g>
					</g>
					<g data-name="Login">
						<g fill="#eee8d5" stroke="#33322E" data-name="Login">
							<rect x="1716.8" y="169.5" height="62.0" width="60.0" data-name="Login"></rect>
							<path d="M1716.8 200.5 L1776.8 200.5" fill="none" data-name="Login"></path>
						</g>
						<g transform="translate(1716.75, 169.5)" font-family="Helvetica" font-size="12pt" font-weight="bold" font-style="normal" data-name="Login">
							<g transform="translate(8, 8)" fill="#33322E" text-align="center" data-name="Login">
								<text x="22.0" y="13.5" stroke="none" text-anchor="middle" data-name="Login">Login</text>
								
							</g>
						</g>
						<g transform="translate(1716.75, 200.5)" font-family="Helvetica" font-size="12pt" font-weight="normal" font-style="normal" data-name="Login">
							<g transform="translate(8, 8)" fill="#33322E" text-align="left" data-name="Login">
								<text x="0.0" y="13.5" stroke="none" data-name="Login">Login</text>
								
							</g>
						</g>
					</g>
					<g data-name="Register">
						<g fill="#eee8d5" stroke="#33322E" data-name="Register">
							<rect x="1153.5" y="22.5" height="62.0" width="82.0" data-name="Register"></rect>
							<path d="M1153.5 53.5 L1235.5 53.5" fill="none" data-name="Register"></path>
						</g>
						<g transform="translate(1153.5, 22.5)" font-family="Helvetica" font-size="12pt" font-weight="bold" font-style="normal" data-name="Register">
							<g transform="translate(8, 8)" fill="#33322E" text-align="center" data-name="Register">
								<text x="33.0" y="13.5" stroke="none" text-anchor="middle" data-name="Register">Register</text>
								
							</g>
						</g>
						<g transform="translate(1153.5, 53.5)" font-family="Helvetica" font-size="12pt" font-weight="normal" font-style="normal" data-name="Register">
							<g transform="translate(8, 8)" fill="#33322E" text-align="left" data-name="Register">
								<text x="0.0" y="13.5" stroke="none" data-name="Register">Register</text>
								
							</g>
						</g>
					</g>
					<g data-name="SuperAdminDashboard">
						<g fill="#eee8d5" stroke="#33322E" data-name="SuperAdminDashboard">
							<rect x="2000.8" y="169.5" height="62.0" width="209.0" data-name="SuperAdminDashboard"></rect>
							<path d="M2000.8 200.5 L2209.8 200.5" fill="none" data-name="SuperAdminDashboard"></path>
						</g>
						<g transform="translate(2000.75, 169.5)" font-family="Helvetica" font-size="12pt" font-weight="bold" font-style="normal" data-name="SuperAdminDashboard">
							<g transform="translate(8, 8)" fill="#33322E" text-align="center" data-name="SuperAdminDashboard">
								<text x="96.5" y="13.5" stroke="none" text-anchor="middle" data-name="SuperAdminDashboard">SuperAdminDashboard</text>
								
							</g>
						</g>
						<g transform="translate(2000.75, 200.5)" font-family="Helvetica" font-size="12pt" font-weight="normal" font-style="normal" data-name="SuperAdminDashboard">
							<g transform="translate(8, 8)" fill="#33322E" text-align="left" data-name="SuperAdminDashboard">
								<text x="0.0" y="13.5" stroke="none" data-name="SuperAdminDashboard">Super Admin Dashboard</text>
								
							</g>
						</g>
					</g>
					<g data-name="Verification">
						<g fill="#eee8d5" stroke="#33322E" data-name="Verification">
							<rect x="1400.0" y="169.5" height="62.0" width="130.0" data-name="Verification"></rect>
							<path d="M1400.0 200.5 L1530.0 200.5" fill="none" data-name="Verification"></path>
						</g>
						<g transform="translate(1400, 169.5)" font-family="Helvetica" font-size="12pt" font-weight="bold" font-style="normal" data-name="Verification">
							<g transform="translate(8, 8)" fill="#33322E" text-align="center" data-name="Verification">
								<text x="57.0" y="13.5" stroke="none" text-anchor="middle" data-name="Verification">Verification</text>
								
							</g>
						</g>
						<g transform="translate(1400, 200.5)" font-family="Helvetica" font-size="12pt" font-weight="normal" font-style="normal" data-name="Verification">
							<g transform="translate(8, 8)" fill="#33322E" text-align="left" data-name="Verification">
								<text x="0.0" y="13.5" stroke="none" data-name="Verification">Verify Account</text>
								
							</g>
						</g>
					</g>
					<g data-name="AdminDashboard">
						<g fill="#eee8d5" stroke="#33322E" data-name="AdminDashboard">
							<rect x="2026.8" y="309.0" height="62.0" width="157.0" data-name="AdminDashboard"></rect>
							<path d="M2026.8 340.0 L2183.8 340.0" fill="none" data-name="AdminDashboard"></path>
						</g>
						<g transform="translate(2026.75, 309)" font-family="Helvetica" font-size="12pt" font-weight="bold" font-style="normal" data-name="AdminDashboard">
							<g transform="translate(8, 8)" fill="#33322E" text-align="center" data-name="AdminDashboard">
								<text x="70.5" y="13.5" stroke="none" text-anchor="middle" data-name="AdminDashboard">AdminDashboard</text>
								
							</g>
						</g>
						<g transform="translate(2026.75, 340)" font-family="Helvetica" font-size="12pt" font-weight="normal" font-style="normal" data-name="AdminDashboard">
							<g transform="translate(8, 8)" fill="#33322E" text-align="left" data-name="AdminDashboard">
								<text x="0.0" y="13.5" stroke="none" data-name="AdminDashboard">Admin Dashboard</text>
								
							</g>
						</g>
					</g>
					<g data-name="CreateJobCard">
						<g fill="#eee8d5" stroke="#33322E" data-name="CreateJobCard">
							<rect x="1706.5" y="456.0" height="62.0" width="146.0" data-name="CreateJobCard"></rect>
							<path d="M1706.5 487.0 L1852.5 487.0" fill="none" data-name="CreateJobCard"></path>
						</g>
						<g transform="translate(1706.5, 456)" font-family="Helvetica" font-size="12pt" font-weight="bold" font-style="normal" data-name="CreateJobCard">
							<g transform="translate(8, 8)" fill="#33322E" text-align="center" data-name="CreateJobCard">
								<text x="65.0" y="13.5" stroke="none" text-anchor="middle" data-name="CreateJobCard">CreateJobCard</text>
								
							</g>
						</g>
						<g transform="translate(1706.5, 487)" font-family="Helvetica" font-size="12pt" font-weight="normal" font-style="normal" data-name="CreateJobCard">
							<g transform="translate(8, 8)" fill="#33322E" text-align="left" data-name="CreateJobCard">
								<text x="0.0" y="13.5" stroke="none" data-name="CreateJobCard">Create Job Card</text>
								
							</g>
						</g>
					</g>
					<g data-name="CreateTimesheet">
						<g fill="#eee8d5" stroke="#33322E" data-name="CreateTimesheet">
							<rect x="1313.5" y="456.0" height="62.0" width="156.0" data-name="CreateTimesheet"></rect>
							<path d="M1313.5 487.0 L1469.5 487.0" fill="none" data-name="CreateTimesheet"></path>
						</g>
						<g transform="translate(1313.5, 456)" font-family="Helvetica" font-size="12pt" font-weight="bold" font-style="normal" data-name="CreateTimesheet">
							<g transform="translate(8, 8)" fill="#33322E" text-align="center" data-name="CreateTimesheet">
								<text x="70.0" y="13.5" stroke="none" text-anchor="middle" data-name="CreateTimesheet">CreateTimesheet</text>
								
							</g>
						</g>
						<g transform="translate(1313.5, 487)" font-family="Helvetica" font-size="12pt" font-weight="normal" font-style="normal" data-name="CreateTimesheet">
							<g transform="translate(8, 8)" fill="#33322E" text-align="left" data-name="CreateTimesheet">
								<text x="0.0" y="13.5" stroke="none" data-name="CreateTimesheet">Create Timesheet</text>
								
							</g>
						</g>
					</g>
					<g data-name="Customise">
						<g fill="#eee8d5" stroke="#33322E" data-name="Customise">
							<rect x="1174.5" y="456.0" height="62.0" width="99.0" data-name="Customise"></rect>
							<path d="M1174.5 487.0 L1273.5 487.0" fill="none" data-name="Customise"></path>
						</g>
						<g transform="translate(1174.5, 456)" font-family="Helvetica" font-size="12pt" font-weight="bold" font-style="normal" data-name="Customise">
							<g transform="translate(8, 8)" fill="#33322E" text-align="center" data-name="Customise">
								<text x="41.5" y="13.5" stroke="none" text-anchor="middle" data-name="Customise">Customise</text>
								
							</g>
						</g>
						<g transform="translate(1174.5, 487)" font-family="Helvetica" font-size="12pt" font-weight="normal" font-style="normal" data-name="Customise">
							<g transform="translate(8, 8)" fill="#33322E" text-align="left" data-name="Customise">
								<text x="0.0" y="13.5" stroke="none" data-name="Customise">Customise</text>
								
							</g>
						</g>
					</g>
					<g data-name="Dashboard">
						<g fill="#eee8d5" stroke="#33322E" data-name="Dashboard">
							<rect x="1862.5" y="588.0" height="62.0" width="103.0" data-name="Dashboard"></rect>
							<path d="M1862.5 619.0 L1965.5 619.0" fill="none" data-name="Dashboard"></path>
						</g>
						<g transform="translate(1862.5, 588)" font-family="Helvetica" font-size="12pt" font-weight="bold" font-style="normal" data-name="Dashboard">
							<g transform="translate(8, 8)" fill="#33322E" text-align="center" data-name="Dashboard">
								<text x="43.5" y="13.5" stroke="none" text-anchor="middle" data-name="Dashboard">Dashboard</text>
								
							</g>
						</g>
						<g transform="translate(1862.5, 619)" font-family="Helvetica" font-size="12pt" font-weight="normal" font-style="normal" data-name="Dashboard">
							<g transform="translate(8, 8)" fill="#33322E" text-align="left" data-name="Dashboard">
								<text x="0.0" y="13.5" stroke="none" data-name="Dashboard">Dashboard</text>
								
							</g>
						</g>
					</g>
					<g data-name="EmployeeSettings">
						<g fill="#eee8d5" stroke="#33322E" data-name="EmployeeSettings">
							<rect x="1561.3" y="690.0" height="62.0" width="163.0" data-name="EmployeeSettings"></rect>
							<path d="M1561.3 721.0 L1724.3 721.0" fill="none" data-name="EmployeeSettings"></path>
						</g>
						<g transform="translate(1561.25, 690)" font-family="Helvetica" font-size="12pt" font-weight="bold" font-style="normal" data-name="EmployeeSettings">
							<g transform="translate(8, 8)" fill="#33322E" text-align="center" data-name="EmployeeSettings">
								<text x="73.5" y="13.5" stroke="none" text-anchor="middle" data-name="EmployeeSettings">EmployeeSettings</text>
								
							</g>
						</g>
						<g transform="translate(1561.25, 721)" font-family="Helvetica" font-size="12pt" font-weight="normal" font-style="normal" data-name="EmployeeSettings">
							<g transform="translate(8, 8)" fill="#33322E" text-align="left" data-name="EmployeeSettings">
								<text x="0.0" y="13.5" stroke="none" data-name="EmployeeSettings">Employee Settings</text>
								
							</g>
						</g>
					</g>
					<g data-name="Index">
						<g fill="#eee8d5" stroke="#33322E" data-name="Index">
							<rect x="1502.5" y="309.0" height="62.0" width="60.0" data-name="Index"></rect>
							<path d="M1502.5 340.0 L1562.5 340.0" fill="none" data-name="Index"></path>
						</g>
						<g transform="translate(1502.5, 309)" font-family="Helvetica" font-size="12pt" font-weight="bold" font-style="normal" data-name="Index">
							<g transform="translate(8, 8)" fill="#33322E" text-align="center" data-name="Index">
								<text x="22.0" y="13.5" stroke="none" text-anchor="middle" data-name="Index">Index</text>
								
							</g>
						</g>
						<g transform="translate(1502.5, 340)" font-family="Helvetica" font-size="12pt" font-weight="normal" font-style="normal" data-name="Index">
							<g transform="translate(8, 8)" fill="#33322E" text-align="left" data-name="Index">
								<text x="0.0" y="13.5" stroke="none" data-name="Index">Index</text>
								
							</g>
						</g>
					</g>
					<g data-name="Info">
						<g fill="#eee8d5" stroke="#33322E" data-name="Info">
							<rect x="1509.5" y="456.0" height="62.0" width="46.0" data-name="Info"></rect>
							<path d="M1509.5 487.0 L1555.5 487.0" fill="none" data-name="Info"></path>
						</g>
						<g transform="translate(1509.5, 456)" font-family="Helvetica" font-size="12pt" font-weight="bold" font-style="normal" data-name="Info">
							<g transform="translate(8, 8)" fill="#33322E" text-align="center" data-name="Info">
								<text x="15.0" y="13.5" stroke="none" text-anchor="middle" data-name="Info">Info</text>
								
							</g>
						</g>
						<g transform="translate(1509.5, 487)" font-family="Helvetica" font-size="12pt" font-weight="normal" font-style="normal" data-name="Info">
							<g transform="translate(8, 8)" fill="#33322E" text-align="left" data-name="Info">
								<text x="0.0" y="13.5" stroke="none" data-name="Info">Info</text>
								
							</g>
						</g>
					</g>
					<g data-name="AccountSettings">
						<g fill="#eee8d5" stroke="#33322E" data-name="AccountSettings">
							<rect x="985.5" y="456.0" height="62.0" width="149.0" data-name="AccountSettings"></rect>
							<path d="M985.5 487.0 L1134.5 487.0" fill="none" data-name="AccountSettings"></path>
						</g>
						<g transform="translate(985.5, 456)" font-family="Helvetica" font-size="12pt" font-weight="bold" font-style="normal" data-name="AccountSettings">
							<g transform="translate(8, 8)" fill="#33322E" text-align="center" data-name="AccountSettings">
								<text x="66.5" y="13.5" stroke="none" text-anchor="middle" data-name="AccountSettings">AccountSettings</text>
								
							</g>
						</g>
						<g transform="translate(985.5, 487)" font-family="Helvetica" font-size="12pt" font-weight="normal" font-style="normal" data-name="AccountSettings">
							<g transform="translate(8, 8)" fill="#33322E" text-align="left" data-name="AccountSettings">
								<text x="0.0" y="13.5" stroke="none" data-name="AccountSettings">Account Settings</text>
								
							</g>
						</g>
					</g>
					<g data-name="AdminRoutes">
						<g fill="#eee8d5" stroke="#33322E" data-name="AdminRoutes">
							<rect x="608.0" y="147.0" height="107.0" width="171.0" data-name="AdminRoutes"></rect>
							<path d="M608.0 178.0 L779.0 178.0" fill="none" data-name="AdminRoutes"></path>
						</g>
						<g transform="translate(608, 147)" font-family="Helvetica" font-size="12pt" font-weight="bold" font-style="normal" data-name="AdminRoutes">
							<g transform="translate(8, 8)" fill="#33322E" text-align="center" data-name="AdminRoutes">
								<text x="77.5" y="13.5" stroke="none" text-anchor="middle" data-name="AdminRoutes">AdminRoutes</text>
								
							</g>
						</g>
						<g transform="translate(608, 178)" font-family="Helvetica" font-size="12pt" font-weight="normal" font-style="normal" data-name="AdminRoutes">
							<g transform="translate(8, 8)" fill="#33322E" text-align="left" data-name="AdminRoutes">
								<text x="0.0" y="13.5" stroke="none" data-name="AdminRoutes">admin_dashboard()</text>
								<text x="0.0" y="28.5" stroke="none" data-name="AdminRoutes">create_job_card()</text>
								<text x="0.0" y="43.5" stroke="none" data-name="AdminRoutes">create_timesheet()</text>
								<text x="0.0" y="58.5" stroke="none" data-name="AdminRoutes">manage_users()</text>
								
							</g>
						</g>
					</g>
					<g data-name="App">
						<g fill="#eee8d5" stroke="#33322E" data-name="App">
							<rect x="2620.0" y="22.5" height="62.0" width="278.0" data-name="App"></rect>
							<path d="M2620.0 53.5 L2898.0 53.5" fill="none" data-name="App"></path>
						</g>
						<g transform="translate(2620, 22.5)" font-family="Helvetica" font-size="12pt" font-weight="bold" font-style="normal" data-name="App">
							<g transform="translate(8, 8)" fill="#33322E" text-align="center" data-name="App">
								<text x="131.0" y="13.5" stroke="none" text-anchor="middle" data-name="App">App</text>
								
							</g>
						</g>
						<g transform="translate(2620, 53.5)" font-family="Helvetica" font-size="12pt" font-weight="normal" font-style="normal" data-name="App">
							<g transform="translate(8, 8)" fill="#33322E" text-align="left" data-name="App">
								<text x="0.0" y="13.5" stroke="none" data-name="App">create_app(config_class=Config)</text>
								
							</g>
						</g>
					</g>
					<g data-name="ConfigureMSAL">
						<g fill="#eee8d5" stroke="#33322E" data-name="ConfigureMSAL">
							<rect x="2890.8" y="154.5" height="92.0" width="172.0" data-name="ConfigureMSAL"></rect>
							<path d="M2890.8 185.5 L3062.8 185.5" fill="none" data-name="ConfigureMSAL"></path>
						</g>
						<g transform="translate(2890.75, 154.5)" font-family="Helvetica" font-size="12pt" font-weight="bold" font-style="normal" data-name="ConfigureMSAL">
							<g transform="translate(8, 8)" fill="#33322E" text-align="center" data-name="ConfigureMSAL">
								<text x="78.0" y="13.5" stroke="none" text-anchor="middle" data-name="ConfigureMSAL">ConfigureMSAL</text>
								
							</g>
						</g>
						<g transform="translate(2890.75, 185.5)" font-family="Helvetica" font-size="12pt" font-weight="normal" font-style="normal" data-name="ConfigureMSAL">
							<g transform="translate(8, 8)" fill="#33322E" text-align="left" data-name="ConfigureMSAL">
								<text x="0.0" y="13.5" stroke="none" data-name="ConfigureMSAL">get_msal_app()</text>
								<text x="0.0" y="28.5" stroke="none" data-name="ConfigureMSAL">load_cache(cache)</text>
								<text x="0.0" y="43.5" stroke="none" data-name="ConfigureMSAL">save_cache(cache)</text>
								
							</g>
						</g>
					</g>
					<g data-name="ConfigureSMTP">
						<g fill="#eee8d5" stroke="#33322E" data-name="ConfigureSMTP">
							<rect x="2600.8" y="169.5" height="62.0" width="250.0" data-name="ConfigureSMTP"></rect>
							<path d="M2600.8 200.5 L2850.8 200.5" fill="none" data-name="ConfigureSMTP"></path>
						</g>
						<g transform="translate(2600.75, 169.5)" font-family="Helvetica" font-size="12pt" font-weight="bold" font-style="normal" data-name="ConfigureSMTP">
							<g transform="translate(8, 8)" fill="#33322E" text-align="center" data-name="ConfigureSMTP">
								<text x="117.0" y="13.5" stroke="none" text-anchor="middle" data-name="ConfigureSMTP">ConfigureSMTP</text>
								
							</g>
						</g>
						<g transform="translate(2600.75, 200.5)" font-family="Helvetica" font-size="12pt" font-weight="normal" font-style="normal" data-name="ConfigureSMTP">
							<g transform="translate(8, 8)" fill="#33322E" text-align="left" data-name="ConfigureSMTP">
								<text x="0.0" y="13.5" stroke="none" data-name="ConfigureSMTP">send_email(subject, body, to)</text>
								
							</g>
						</g>
					</g>
					<g data-name="CreateADCredentialsDB">
						<g fill="#eee8d5" stroke="#33322E" data-name="CreateADCredentialsDB">
							<rect x="3135.3" y="309.0" height="62.0" width="225.0" data-name="CreateADCredentialsDB"></rect>
							<path d="M3135.3 340.0 L3360.3 340.0" fill="none" data-name="CreateADCredentialsDB"></path>
						</g>
						<g transform="translate(3135.25, 309)" font-family="Helvetica" font-size="12pt" font-weight="bold" font-style="normal" data-name="CreateADCredentialsDB">
							<g transform="translate(8, 8)" fill="#33322E" text-align="center" data-name="CreateADCredentialsDB">
								<text x="104.5" y="13.5" stroke="none" text-anchor="middle" data-name="CreateADCredentialsDB">CreateADCredentialsDB</text>
								
							</g>
						</g>
						<g transform="translate(3135.25, 340)" font-family="Helvetica" font-size="12pt" font-weight="normal" font-style="normal" data-name="CreateADCredentialsDB">
							<g transform="translate(8, 8)" fill="#33322E" text-align="left" data-name="CreateADCredentialsDB">
								<text x="0.0" y="13.5" stroke="none" data-name="CreateADCredentialsDB">create_adcredentials_db()</text>
								
							</g>
						</g>
					</g>
					<g data-name="CreateSQLAlchemyDB">
						<g fill="#eee8d5" stroke="#33322E" data-name="CreateSQLAlchemyDB">
							<rect x="2888.3" y="309.0" height="62.0" width="207.0" data-name="CreateSQLAlchemyDB"></rect>
							<path d="M2888.3 340.0 L3095.3 340.0" fill="none" data-name="CreateSQLAlchemyDB"></path>
						</g>
						<g transform="translate(2888.25, 309)" font-family="Helvetica" font-size="12pt" font-weight="bold" font-style="normal" data-name="CreateSQLAlchemyDB">
							<g transform="translate(8, 8)" fill="#33322E" text-align="center" data-name="CreateSQLAlchemyDB">
								<text x="95.5" y="13.5" stroke="none" text-anchor="middle" data-name="CreateSQLAlchemyDB">CreateSQLAlchemyDB</text>
								
							</g>
						</g>
						<g transform="translate(2888.25, 340)" font-family="Helvetica" font-size="12pt" font-weight="normal" font-style="normal" data-name="CreateSQLAlchemyDB">
							<g transform="translate(8, 8)" fill="#33322E" text-align="left" data-name="CreateSQLAlchemyDB">
								<text x="0.0" y="13.5" stroke="none" data-name="CreateSQLAlchemyDB">create_sqlalchemy_db()</text>
								
							</g>
						</g>
					</g>
					<g data-name="Extensions">
						<g fill="#eee8d5" stroke="#33322E" data-name="Extensions">
							<rect x="2590.3" y="294.0" height="92.0" width="258.0" data-name="Extensions"></rect>
							<path d="M2590.3 325.0 L2848.3 325.0" fill="none" data-name="Extensions"></path>
						</g>
						<g transform="translate(2590.25, 294)" font-family="Helvetica" font-size="12pt" font-weight="bold" font-style="normal" data-name="Extensions">
							<g transform="translate(8, 8)" fill="#33322E" text-align="center" data-name="Extensions">
								<text x="121.0" y="13.5" stroke="none" text-anchor="middle" data-name="Extensions">Extensions</text>
								
							</g>
						</g>
						<g transform="translate(2590.25, 325)" font-family="Helvetica" font-size="12pt" font-weight="normal" font-style="normal" data-name="Extensions">
							<g transform="translate(8, 8)" fill="#33322E" text-align="left" data-name="Extensions">
								<text x="0.0" y="13.5" stroke="none" data-name="Extensions">db: SQLAlchemy</text>
								<text x="0.0" y="28.5" stroke="none" data-name="Extensions">login_manager: LoginManager</text>
								<text x="0.0" y="43.5" stroke="none" data-name="Extensions">mail: Mail</text>
								
							</g>
						</g>
					</g>
					<g data-name="InitExtensions">
						<g fill="#eee8d5" stroke="#33322E" data-name="InitExtensions">
							<rect x="2378.5" y="169.5" height="62.0" width="177.0" data-name="InitExtensions"></rect>
							<path d="M2378.5 200.5 L2555.5 200.5" fill="none" data-name="InitExtensions"></path>
						</g>
						<g transform="translate(2378.5, 169.5)" font-family="Helvetica" font-size="12pt" font-weight="bold" font-style="normal" data-name="InitExtensions">
							<g transform="translate(8, 8)" fill="#33322E" text-align="center" data-name="InitExtensions">
								<text x="80.5" y="13.5" stroke="none" text-anchor="middle" data-name="InitExtensions">InitExtensions</text>
								
							</g>
						</g>
						<g transform="translate(2378.5, 200.5)" font-family="Helvetica" font-size="12pt" font-weight="normal" font-style="normal" data-name="InitExtensions">
							<g transform="translate(8, 8)" fill="#33322E" text-align="left" data-name="InitExtensions">
								<text x="0.0" y="13.5" stroke="none" data-name="InitExtensions">init_extensions(app)</text>
								
							</g>
						</g>
					</g>
					<g data-name="Migration">
						<g fill="#eee8d5" stroke="#33322E" data-name="Migration">
							<rect x="1275.5" y="15.0" height="77.0" width="89.0" data-name="Migration"></rect>
							<path d="M1275.5 46.0 L1364.5 46.0" fill="none" data-name="Migration"></path>
						</g>
						<g transform="translate(1275.5, 15)" font-family="Helvetica" font-size="12pt" font-weight="bold" font-style="normal" data-name="Migration">
							<g transform="translate(8, 8)" fill="#33322E" text-align="center" data-name="Migration">
								<text x="36.5" y="13.5" stroke="none" text-anchor="middle" data-name="Migration">Migration</text>
								
							</g>
						</g>
						<g transform="translate(1275.5, 46)" font-family="Helvetica" font-size="12pt" font-weight="normal" font-style="normal" data-name="Migration">
							<g transform="translate(8, 8)" fill="#33322E" text-align="left" data-name="Migration">
								<text x="0.0" y="13.5" stroke="none" data-name="Migration">init()</text>
								<text x="0.0" y="28.5" stroke="none" data-name="Migration">migrate()</text>
								
							</g>
						</g>
					</g>
					<g data-name="Models">
						<g fill="#eee8d5" stroke="#33322E" data-name="Models">
							<rect x="3016.0" y="426.0" height="122.0" width="117.0" data-name="Models"></rect>
							<path d="M3016.0 457.0 L3133.0 457.0" fill="none" data-name="Models"></path>
						</g>
						<g transform="translate(3016, 426)" font-family="Helvetica" font-size="12pt" font-weight="bold" font-style="normal" data-name="Models">
							<g transform="translate(8, 8)" fill="#33322E" text-align="center" data-name="Models">
								<text x="50.5" y="13.5" stroke="none" text-anchor="middle" data-name="Models">Models</text>
								
							</g>
						</g>
						<g transform="translate(3016, 457)" font-family="Helvetica" font-size="12pt" font-weight="normal" font-style="normal" data-name="Models">
							<g transform="translate(8, 8)" fill="#33322E" text-align="left" data-name="Models">
								<text x="0.0" y="13.5" stroke="none" data-name="Models">User</text>
								<text x="0.0" y="28.5" stroke="none" data-name="Models">Organisation</text>
								<text x="0.0" y="43.5" stroke="none" data-name="Models">Timesheet</text>
								<text x="0.0" y="58.5" stroke="none" data-name="Models">JobCard</text>
								<text x="0.0" y="73.5" stroke="none" data-name="Models">Task</text>
								
							</g>
						</g>
					</g>
					<g data-name="Timesheet2JSON">
						<g fill="#eee8d5" stroke="#33322E" data-name="Timesheet2JSON">
							<rect x="840.0" y="22.5" height="62.0" width="244.0" data-name="Timesheet2JSON"></rect>
							<path d="M840.0 53.5 L1084.0 53.5" fill="none" data-name="Timesheet2JSON"></path>
						</g>
						<g transform="translate(840, 22.5)" font-family="Helvetica" font-size="12pt" font-weight="bold" font-style="normal" data-name="Timesheet2JSON">
							<g transform="translate(8, 8)" fill="#33322E" text-align="center" data-name="Timesheet2JSON">
								<text x="114.0" y="13.5" stroke="none" text-anchor="middle" data-name="Timesheet2JSON">Timesheet2JSON</text>
								
							</g>
						</g>
						<g transform="translate(840, 53.5)" font-family="Helvetica" font-size="12pt" font-weight="normal" font-style="normal" data-name="Timesheet2JSON">
							<g transform="translate(8, 8)" fill="#33322E" text-align="left" data-name="Timesheet2JSON">
								<text x="0.0" y="13.5" stroke="none" data-name="Timesheet2JSON">timesheet_to_json(docx_file)</text>
								
							</g>
						</g>
					</g>
					<g data-name="TotalHourDict">
						<g fill="#eee8d5" stroke="#33322E" data-name="TotalHourDict">
							<rect x="2223.8" y="309.0" height="62.0" width="203.0" data-name="TotalHourDict"></rect>
							<path d="M2223.8 340.0 L2426.8 340.0" fill="none" data-name="TotalHourDict"></path>
						</g>
						<g transform="translate(2223.75, 309)" font-family="Helvetica" font-size="12pt" font-weight="bold" font-style="normal" data-name="TotalHourDict">
							<g transform="translate(8, 8)" fill="#33322E" text-align="center" data-name="TotalHourDict">
								<text x="93.5" y="13.5" stroke="none" text-anchor="middle" data-name="TotalHourDict">TotalHourDict</text>
								
							</g>
						</g>
						<g transform="translate(2223.75, 340)" font-family="Helvetica" font-size="12pt" font-weight="normal" font-style="normal" data-name="TotalHourDict">
							<g transform="translate(8, 8)" fill="#33322E" text-align="left" data-name="TotalHourDict">
								<text x="0.0" y="13.5" stroke="none" data-name="TotalHourDict">total_hours(timesheets)</text>
								
							</g>
						</g>
					</g>
					<g data-name="UpdateExcel">
						<g fill="#eee8d5" stroke="#33322E" data-name="UpdateExcel">
							<rect x="1105.0" y="169.5" height="62.0" width="255.0" data-name="UpdateExcel"></rect>
							<path d="M1105.0 200.5 L1360.0 200.5" fill="none" data-name="UpdateExcel"></path>
						</g>
						<g transform="translate(1105, 169.5)" font-family="Helvetica" font-size="12pt" font-weight="bold" font-style="normal" data-name="UpdateExcel">
							<g transform="translate(8, 8)" fill="#33322E" text-align="center" data-name="UpdateExcel">
								<text x="119.5" y="13.5" stroke="none" text-anchor="middle" data-name="UpdateExcel">UpdateExcel</text>
								
							</g>
						</g>
						<g transform="translate(1105, 200.5)" font-family="Helvetica" font-size="12pt" font-weight="normal" font-style="normal" data-name="UpdateExcel">
							<g transform="translate(8, 8)" fill="#33322E" text-align="left" data-name="UpdateExcel">
								<text x="0.0" y="13.5" stroke="none" data-name="UpdateExcel">update_excel(excel_file, data)</text>
								
							</g>
						</g>
					</g>
					<g data-name="Util">
						<g fill="#eee8d5" stroke="#33322E" data-name="Util">
							<rect x="1632.8" y="301.5" height="77.0" width="354.0" data-name="Util"></rect>
							<path d="M1632.8 332.5 L1986.8 332.5" fill="none" data-name="Util"></path>
						</g>
						<g transform="translate(1632.75, 301.5)" font-family="Helvetica" font-size="12pt" font-weight="bold" font-style="normal" data-name="Util">
							<g transform="translate(8, 8)" fill="#33322E" text-align="center" data-name="Util">
								<text x="169.0" y="13.5" stroke="none" text-anchor="middle" data-name="Util">Util</text>
								
							</g>
						</g>
						<g transform="translate(1632.75, 332.5)" font-family="Helvetica" font-size="12pt" font-weight="normal" font-style="normal" data-name="Util">
							<g transform="translate(8, 8)" fill="#33322E" text-align="left" data-name="Util">
								<text x="0.0" y="13.5" stroke="none" data-name="Util">save_file(file, filename, directory)</text>
								<text x="0.0" y="28.5" stroke="none" data-name="Util">allowed_file(filename, allowed_extensions)</text>
								
							</g>
						</g>
					</g>
				</g>
			</g>
		</g>
	</g>
</svg>