<?xml version="1.0" encoding="UTF-8" standalone="no"?>
<!DOCTYPE svg PUBLIC "-//W3C//DTD SVG 1.1//EN"
 "http://www.w3.org/Graphics/SVG/1.1/DTD/svg11.dtd">
<!-- Generated by graphviz version 11.0.0 (20240428.1522)
 -->
<!-- Pages: 1 -->
<svg width="5121pt" height="188pt"
 viewBox="0.00 0.00 5120.78 188.00" xmlns="http://www.w3.org/2000/svg" xmlns:xlink="http://www.w3.org/1999/xlink">
<g id="graph0" class="graph" transform="scale(1 1) rotate(0) translate(4 184)">
<polygon fill="white" stroke="none" points="-4,4 -4,-184 5116.78,-184 5116.78,4 -4,4"/>
<!-- A -->
<g id="node1" class="node">
<title>A</title>
<ellipse fill="none" stroke="black" cx="1744.4" cy="-162" rx="77.45" ry="18"/>
<text text-anchor="middle" x="1744.4" y="-156.95" font-family="Times,serif" font-size="14.00">Device: Device D</text>
</g>
<!-- B -->
<g id="node2" class="node">
<title>B</title>
<ellipse fill="none" stroke="black" cx="636.4" cy="-90" rx="103.04" ry="18"/>
<text text-anchor="middle" x="636.4" y="-84.95" font-family="Times,serif" font-size="14.00">Recommended Software</text>
</g>
<!-- A&#45;&gt;B -->
<g id="edge1" class="edge">
<title>A&#45;&gt;B</title>
<path fill="none" stroke="black" d="M1670.41,-156.33C1479.06,-144.24 967.22,-111.9 743.52,-97.77"/>
<polygon fill="black" stroke="black" points="743.83,-94.28 733.63,-97.14 743.39,-101.27 743.83,-94.28"/>
</g>
<!-- C -->
<g id="node3" class="node">
<title>C</title>
<ellipse fill="none" stroke="black" cx="2853.4" cy="-90" rx="80.01" ry="18"/>
<text text-anchor="middle" x="2853.4" y="-84.95" font-family="Times,serif" font-size="14.00">Security Measures</text>
</g>
<!-- A&#45;&gt;C -->
<g id="edge2" class="edge">
<title>A&#45;&gt;C</title>
<path fill="none" stroke="black" d="M1818.45,-156.33C2015.85,-143.87 2554.03,-109.9 2765.96,-96.52"/>
<polygon fill="black" stroke="black" points="2766.06,-100.02 2775.82,-95.9 2765.61,-93.03 2766.06,-100.02"/>
</g>
<!-- S1 -->
<g id="node4" class="node">
<title>S1</title>
<ellipse fill="none" stroke="black" cx="53.4" cy="-18" rx="53.4" ry="18"/>
<text text-anchor="middle" x="53.4" y="-12.95" font-family="Times,serif" font-size="14.00">Norton 360</text>
</g>
<!-- B&#45;&gt;S1 -->
<g id="edge3" class="edge">
<title>B&#45;&gt;S1</title>
<path fill="none" stroke="black" d="M538.73,-83.92C433.52,-77.33 261.53,-63.27 115.4,-36 111.38,-35.25 107.24,-34.37 103.09,-33.4"/>
<polygon fill="black" stroke="black" points="104.21,-30.07 93.66,-31.06 102.53,-36.87 104.21,-30.07"/>
</g>
<!-- S2 -->
<g id="node5" class="node">
<title>S2</title>
<ellipse fill="none" stroke="black" cx="228.4" cy="-18" rx="103.56" ry="18"/>
<text text-anchor="middle" x="228.4" y="-12.95" font-family="Times,serif" font-size="14.00">McAfee Total Protection</text>
</g>
<!-- B&#45;&gt;S2 -->
<g id="edge4" class="edge">
<title>B&#45;&gt;S2</title>
<path fill="none" stroke="black" d="M564.86,-76.73C494.11,-64.59 385.89,-46.02 311.39,-33.24"/>
<polygon fill="black" stroke="black" points="312.13,-29.82 301.69,-31.57 310.95,-36.71 312.13,-29.82"/>
</g>
<!-- S3 -->
<g id="node6" class="node">
<title>S3</title>
<ellipse fill="none" stroke="black" cx="459.4" cy="-18" rx="109.19" ry="18"/>
<text text-anchor="middle" x="459.4" y="-12.95" font-family="Times,serif" font-size="14.00">Bitdefender Total Security</text>
</g>
<!-- B&#45;&gt;S3 -->
<g id="edge5" class="edge">
<title>B&#45;&gt;S3</title>
<path fill="none" stroke="black" d="M596.23,-73.12C570.84,-63.07 537.79,-50 510.53,-39.22"/>
<polygon fill="black" stroke="black" points="512.01,-36.04 501.42,-35.62 509.44,-42.55 512.01,-36.04"/>
</g>
<!-- S4 -->
<g id="node7" class="node">
<title>S4</title>
<ellipse fill="none" stroke="black" cx="636.4" cy="-18" rx="49.82" ry="18"/>
<text text-anchor="middle" x="636.4" y="-12.95" font-family="Times,serif" font-size="14.00">Kaspersky</text>
</g>
<!-- B&#45;&gt;S4 -->
<g id="edge6" class="edge">
<title>B&#45;&gt;S4</title>
<path fill="none" stroke="black" d="M636.4,-71.7C636.4,-64.41 636.4,-55.73 636.4,-47.54"/>
<polygon fill="black" stroke="black" points="639.9,-47.62 636.4,-37.62 632.9,-47.62 639.9,-47.62"/>
</g>
<!-- S5 -->
<g id="node8" class="node">
<title>S5</title>
<ellipse fill="none" stroke="black" cx="755.4" cy="-18" rx="51.35" ry="18"/>
<text text-anchor="middle" x="755.4" y="-12.95" font-family="Times,serif" font-size="14.00">Avast Free</text>
</g>
<!-- B&#45;&gt;S5 -->
<g id="edge7" class="edge">
<title>B&#45;&gt;S5</title>
<path fill="none" stroke="black" d="M664.9,-72.23C681.46,-62.5 702.45,-50.15 720.05,-39.79"/>
<polygon fill="black" stroke="black" points="721.81,-42.82 728.66,-34.73 718.26,-36.78 721.81,-42.82"/>
</g>
<!-- S6 -->
<g id="node9" class="node">
<title>S6</title>
<ellipse fill="none" stroke="black" cx="881.4" cy="-18" rx="56.98" ry="18"/>
<text text-anchor="middle" x="881.4" y="-12.95" font-family="Times,serif" font-size="14.00">Avira Prime</text>
</g>
<!-- B&#45;&gt;S6 -->
<g id="edge8" class="edge">
<title>B&#45;&gt;S6</title>
<path fill="none" stroke="black" d="M688.66,-74.07C730.11,-62.23 787.77,-45.75 829.2,-33.91"/>
<polygon fill="black" stroke="black" points="830.06,-37.31 838.71,-31.2 828.13,-30.58 830.06,-37.31"/>
</g>
<!-- C1 -->
<g id="node10" class="node">
<title>C1</title>
<ellipse fill="none" stroke="black" cx="1071.4" cy="-18" rx="115.33" ry="18"/>
<text text-anchor="middle" x="1071.4" y="-12.95" font-family="Times,serif" font-size="14.00">BitLocker Drive Encryption</text>
</g>
<!-- C&#45;&gt;C1 -->
<g id="edge9" class="edge">
<title>C&#45;&gt;C1</title>
<path fill="none" stroke="black" d="M2773.05,-89.36C2533.08,-89.82 1800.86,-86.63 1196.4,-36 1185.6,-35.1 1174.3,-33.9 1163.1,-32.57"/>
<polygon fill="black" stroke="black" points="1163.81,-29.13 1153.46,-31.38 1162.95,-36.08 1163.81,-29.13"/>
</g>
<!-- C2 -->
<g id="node11" class="node">
<title>C2</title>
<ellipse fill="none" stroke="black" cx="1359.4" cy="-18" rx="154.22" ry="18"/>
<text text-anchor="middle" x="1359.4" y="-12.95" font-family="Times,serif" font-size="14.00">Windows Defender Application Guard</text>
</g>
<!-- C&#45;&gt;C2 -->
<g id="edge10" class="edge">
<title>C&#45;&gt;C2</title>
<path fill="none" stroke="black" d="M2773.79,-87.61C2567.08,-83.61 1996.41,-70.12 1522.4,-36 1508.15,-34.97 1493.22,-33.7 1478.43,-32.31"/>
<polygon fill="black" stroke="black" points="1478.95,-28.84 1468.66,-31.37 1478.28,-35.81 1478.95,-28.84"/>
</g>
<!-- C3 -->
<g id="node12" class="node">
<title>C3</title>
<ellipse fill="none" stroke="black" cx="1606.4" cy="-18" rx="74.89" ry="18"/>
<text text-anchor="middle" x="1606.4" y="-12.95" font-family="Times,serif" font-size="14.00">Credential Guard</text>
</g>
<!-- C&#45;&gt;C3 -->
<g id="edge11" class="edge">
<title>C&#45;&gt;C3</title>
<path fill="none" stroke="black" d="M2773.02,-89.59C2583.64,-90.05 2094.86,-85.84 1690.4,-36 1683.97,-35.21 1677.29,-34.19 1670.64,-33.05"/>
<polygon fill="black" stroke="black" points="1671.47,-29.65 1661.01,-31.31 1670.22,-36.53 1671.47,-29.65"/>
</g>
<!-- C4 -->
<g id="node13" class="node">
<title>C4</title>
<ellipse fill="none" stroke="black" cx="1762.4" cy="-18" rx="62.61" ry="18"/>
<text text-anchor="middle" x="1762.4" y="-12.95" font-family="Times,serif" font-size="14.00">Device Guard</text>
</g>
<!-- C&#45;&gt;C4 -->
<g id="edge12" class="edge">
<title>C&#45;&gt;C4</title>
<path fill="none" stroke="black" d="M2772.91,-89.8C2599.96,-90.44 2180.45,-86.13 1833.4,-36 1828.39,-35.28 1823.23,-34.37 1818.07,-33.34"/>
<polygon fill="black" stroke="black" points="1818.84,-29.93 1808.33,-31.27 1817.38,-36.78 1818.84,-29.93"/>
</g>
<!-- C5 -->
<g id="node14" class="node">
<title>C5</title>
<ellipse fill="none" stroke="black" cx="1960.4" cy="-18" rx="117.89" ry="18"/>
<text text-anchor="middle" x="1960.4" y="-12.95" font-family="Times,serif" font-size="14.00">Windows Hello for Business</text>
</g>
<!-- C&#45;&gt;C5 -->
<g id="edge13" class="edge">
<title>C&#45;&gt;C5</title>
<path fill="none" stroke="black" d="M2775.79,-85.27C2637.3,-78.26 2338.55,-61.47 2087.4,-36 2077.05,-34.95 2066.25,-33.72 2055.5,-32.4"/>
<polygon fill="black" stroke="black" points="2056.19,-28.96 2045.84,-31.19 2055.33,-35.91 2056.19,-28.96"/>
</g>
<!-- C6 -->
<g id="node15" class="node">
<title>C6</title>
<ellipse fill="none" stroke="black" cx="2175.4" cy="-18" rx="78.99" ry="18"/>
<text text-anchor="middle" x="2175.4" y="-12.95" font-family="Times,serif" font-size="14.00">Enable Auto&#45;Lock</text>
</g>
<!-- C&#45;&gt;C6 -->
<g id="edge14" class="edge">
<title>C&#45;&gt;C6</title>
<path fill="none" stroke="black" d="M2776.74,-84.6C2663.92,-77.56 2446.7,-61.87 2263.4,-36 2256.88,-35.08 2250.12,-34 2243.37,-32.84"/>
<polygon fill="black" stroke="black" points="2244.01,-29.4 2233.55,-31.09 2242.78,-36.29 2244.01,-29.4"/>
</g>
<!-- C7 -->
<g id="node16" class="node">
<title>C7</title>
<ellipse fill="none" stroke="black" cx="2328.4" cy="-18" rx="56.47" ry="18"/>
<text text-anchor="middle" x="2328.4" y="-12.95" font-family="Times,serif" font-size="14.00">Secure Boot</text>
</g>
<!-- C&#45;&gt;C7 -->
<g id="edge15" class="edge">
<title>C&#45;&gt;C7</title>
<path fill="none" stroke="black" d="M2778.02,-83.6C2686.5,-76.29 2527.72,-61.17 2393.4,-36 2389.14,-35.2 2384.74,-34.28 2380.34,-33.28"/>
<polygon fill="black" stroke="black" points="2381.48,-29.95 2370.94,-31.03 2379.85,-36.76 2381.48,-29.95"/>
</g>
<!-- C8 -->
<g id="node17" class="node">
<title>C8</title>
<ellipse fill="none" stroke="black" cx="2457.4" cy="-18" rx="54.93" ry="18"/>
<text text-anchor="middle" x="2457.4" y="-12.95" font-family="Times,serif" font-size="14.00">VPN Usage</text>
</g>
<!-- C&#45;&gt;C8 -->
<g id="edge16" class="edge">
<title>C&#45;&gt;C8</title>
<path fill="none" stroke="black" d="M2785.31,-80.19C2717.94,-70.99 2612.04,-55.22 2521.4,-36 2517.4,-35.15 2513.27,-34.21 2509.13,-33.22"/>
<polygon fill="black" stroke="black" points="2510.24,-29.89 2499.69,-30.87 2508.55,-36.68 2510.24,-29.89"/>
</g>
<!-- C9 -->
<g id="node18" class="node">
<title>C9</title>
<ellipse fill="none" stroke="black" cx="2645.4" cy="-18" rx="114.82" ry="18"/>
<text text-anchor="middle" x="2645.4" y="-12.95" font-family="Times,serif" font-size="14.00">Group Policy Object (GPO)</text>
</g>
<!-- C&#45;&gt;C9 -->
<g id="edge17" class="edge">
<title>C&#45;&gt;C9</title>
<path fill="none" stroke="black" d="M2810.05,-74.41C2779,-63.96 2736.87,-49.78 2702.99,-38.38"/>
<polygon fill="black" stroke="black" points="2704.34,-35.14 2693.75,-35.27 2702.11,-41.78 2704.34,-35.14"/>
</g>
<!-- C10 -->
<g id="node19" class="node">
<title>C10</title>
<ellipse fill="none" stroke="black" cx="2853.4" cy="-18" rx="74.89" ry="18"/>
<text text-anchor="middle" x="2853.4" y="-12.95" font-family="Times,serif" font-size="14.00">Regular Patching</text>
</g>
<!-- C&#45;&gt;C10 -->
<g id="edge18" class="edge">
<title>C&#45;&gt;C10</title>
<path fill="none" stroke="black" d="M2853.4,-71.7C2853.4,-64.41 2853.4,-55.73 2853.4,-47.54"/>
<polygon fill="black" stroke="black" points="2856.9,-47.62 2853.4,-37.62 2849.9,-47.62 2856.9,-47.62"/>
</g>
<!-- C11 -->
<g id="node20" class="node">
<title>C11</title>
<ellipse fill="none" stroke="black" cx="3031.4" cy="-18" rx="85.13" ry="18"/>
<text text-anchor="middle" x="3031.4" y="-12.95" font-family="Times,serif" font-size="14.00">Endpoint Protection</text>
</g>
<!-- C&#45;&gt;C11 -->
<g id="edge19" class="edge">
<title>C&#45;&gt;C11</title>
<path fill="none" stroke="black" d="M2892.02,-73.81C2918.32,-63.47 2953.35,-49.69 2981.72,-38.54"/>
<polygon fill="black" stroke="black" points="2982.8,-41.87 2990.83,-34.95 2980.24,-35.36 2982.8,-41.87"/>
</g>
<!-- C12 -->
<g id="node21" class="node">
<title>C12</title>
<ellipse fill="none" stroke="black" cx="3236.4" cy="-18" rx="102.02" ry="18"/>
<text text-anchor="middle" x="3236.4" y="-12.95" font-family="Times,serif" font-size="14.00">Application Whitelisting</text>
</g>
<!-- C&#45;&gt;C12 -->
<g id="edge20" class="edge">
<title>C&#45;&gt;C12</title>
<path fill="none" stroke="black" d="M2914.09,-77.91C2979.46,-65.96 3083.78,-46.89 3155.95,-33.7"/>
<polygon fill="black" stroke="black" points="3156.55,-37.15 3165.76,-31.91 3155.3,-30.27 3156.55,-37.15"/>
</g>
<!-- C13 -->
<g id="node22" class="node">
<title>C13</title>
<ellipse fill="none" stroke="black" cx="3447.4" cy="-18" rx="90.76" ry="18"/>
<text text-anchor="middle" x="3447.4" y="-12.95" font-family="Times,serif" font-size="14.00">Data Loss Prevention</text>
</g>
<!-- C&#45;&gt;C13 -->
<g id="edge21" class="edge">
<title>C&#45;&gt;C13</title>
<path fill="none" stroke="black" d="M2926.81,-82.55C3023.44,-73.73 3198.52,-56.62 3347.4,-36 3354.84,-34.97 3362.58,-33.81 3370.31,-32.59"/>
<polygon fill="black" stroke="black" points="3370.78,-36.06 3380.1,-31.02 3369.67,-29.15 3370.78,-36.06"/>
</g>
<!-- C14 -->
<g id="node23" class="node">
<title>C14</title>
<ellipse fill="none" stroke="black" cx="3658.4" cy="-18" rx="102.53" ry="18"/>
<text text-anchor="middle" x="3658.4" y="-12.95" font-family="Times,serif" font-size="14.00">Least Privilege Principle</text>
</g>
<!-- C&#45;&gt;C14 -->
<g id="edge22" class="edge">
<title>C&#45;&gt;C14</title>
<path fill="none" stroke="black" d="M2930.86,-85C3059.28,-77.95 3324.25,-61.57 3547.4,-36 3556.05,-35.01 3565.05,-33.85 3574.03,-32.6"/>
<polygon fill="black" stroke="black" points="3574.46,-36.08 3583.86,-31.2 3573.47,-29.15 3574.46,-36.08"/>
</g>
<!-- C15 -->
<g id="node24" class="node">
<title>C15</title>
<ellipse fill="none" stroke="black" cx="3875.4" cy="-18" rx="96.9" ry="18"/>
<text text-anchor="middle" x="3875.4" y="-12.95" font-family="Times,serif" font-size="14.00">Network Segmentation</text>
</g>
<!-- C&#45;&gt;C15 -->
<g id="edge23" class="edge">
<title>C&#45;&gt;C15</title>
<path fill="none" stroke="black" d="M2932.74,-87.16C3091.98,-82.86 3461.68,-69.82 3770.4,-36 3778.63,-35.1 3787.2,-33.99 3795.74,-32.78"/>
<polygon fill="black" stroke="black" points="3796.03,-36.27 3805.42,-31.35 3795.01,-29.35 3796.03,-36.27"/>
</g>
<!-- C16 -->
<g id="node25" class="node">
<title>C16</title>
<ellipse fill="none" stroke="black" cx="4134.4" cy="-18" rx="144.5" ry="18"/>
<text text-anchor="middle" x="4134.4" y="-12.95" font-family="Times,serif" font-size="14.00">Multi&#45;Factor Authentication (MFA)</text>
</g>
<!-- C&#45;&gt;C16 -->
<g id="edge24" class="edge">
<title>C&#45;&gt;C16</title>
<path fill="none" stroke="black" d="M2932.83,-87.01C3117.22,-82 3588.56,-67.02 3981.4,-36 3994.41,-34.97 4008.02,-33.72 4021.53,-32.36"/>
<polygon fill="black" stroke="black" points="4021.75,-35.86 4031.34,-31.36 4021.03,-28.9 4021.75,-35.86"/>
</g>
<!-- C17 -->
<g id="node26" class="node">
<title>C17</title>
<ellipse fill="none" stroke="black" cx="4419.4" cy="-18" rx="122.49" ry="18"/>
<text text-anchor="middle" x="4419.4" y="-12.95" font-family="Times,serif" font-size="14.00">Disable Unnecessary Services</text>
</g>
<!-- C&#45;&gt;C17 -->
<g id="edge25" class="edge">
<title>C&#45;&gt;C17</title>
<path fill="none" stroke="black" d="M2933.68,-88.63C3151.79,-87.05 3773.5,-78.83 4288.4,-36 4299.45,-35.08 4311.01,-33.9 4322.48,-32.59"/>
<polygon fill="black" stroke="black" points="4322.88,-36.07 4332.4,-31.43 4322.06,-29.12 4322.88,-36.07"/>
</g>
<!-- C18 -->
<g id="node27" class="node">
<title>C18</title>
<ellipse fill="none" stroke="black" cx="4624.4" cy="-18" rx="64.15" ry="18"/>
<text text-anchor="middle" x="4624.4" y="-12.95" font-family="Times,serif" font-size="14.00">OS Hardening</text>
</g>
<!-- C&#45;&gt;C18 -->
<g id="edge26" class="edge">
<title>C&#45;&gt;C18</title>
<path fill="none" stroke="black" d="M2933.66,-88.56C3225.79,-86.65 4231.85,-77.17 4550.4,-36 4555.98,-35.28 4561.75,-34.33 4567.5,-33.24"/>
<polygon fill="black" stroke="black" points="4567.88,-36.73 4576.98,-31.31 4566.48,-29.87 4567.88,-36.73"/>
</g>
<!-- C19 -->
<g id="node28" class="node">
<title>C19</title>
<ellipse fill="none" stroke="black" cx="4826.4" cy="-18" rx="119.93" ry="18"/>
<text text-anchor="middle" x="4826.4" y="-12.95" font-family="Times,serif" font-size="14.00">User Training and Awareness</text>
</g>
<!-- C&#45;&gt;C19 -->
<g id="edge27" class="edge">
<title>C&#45;&gt;C19</title>
<path fill="none" stroke="black" d="M2933.54,-89.62C3190.47,-90.98 4016.6,-90.5 4697.4,-36 4708.46,-35.11 4720.03,-33.94 4731.5,-32.63"/>
<polygon fill="black" stroke="black" points="4731.89,-36.11 4741.41,-31.45 4731.07,-29.15 4731.89,-36.11"/>
</g>
<!-- C20 -->
<g id="node29" class="node">
<title>C20</title>
<ellipse fill="none" stroke="black" cx="5038.4" cy="-18" rx="74.38" ry="18"/>
<text text-anchor="middle" x="5038.4" y="-12.95" font-family="Times,serif" font-size="14.00">Regular Backups</text>
</g>
<!-- C&#45;&gt;C20 -->
<g id="edge28" class="edge">
<title>C&#45;&gt;C20</title>
<path fill="none" stroke="black" d="M2933.76,-88.87C3268.45,-88.06 4552.92,-81.93 4955.4,-36 4961.86,-35.26 4968.56,-34.27 4975.23,-33.14"/>
<polygon fill="black" stroke="black" points="4975.67,-36.62 4984.89,-31.39 4974.43,-29.73 4975.67,-36.62"/>
</g>
</g>
</svg>
